<svg width="1003" height="1244" viewBox="0 0 1003 1244" fill="none" xmlns="http://www.w3.org/2000/svg">
<path d="M748.313 872.753C754.98 897.914 757.782 924.223 755.258 950.13C741.276 1093.65 710.153 1158.34 456.238 1158.34C236.797 1158.34 203.145 1070.14 205.481 946.575C206.676 883.398 226.515 822.174 251.813 764.27C320.2 607.739 339.44 525.685 505.663 538.949C690.894 553.73 684.466 631.805 748.313 872.753Z" fill="#F16677"/>
<path d="M743.288 860.854C749.955 886.015 752.756 912.325 750.233 938.231C736.251 1081.75 705.128 1146.44 451.212 1146.44C231.772 1146.44 198.119 1058.24 200.456 934.676C201.65 871.499 221.49 810.275 246.787 752.371C315.175 595.84 334.415 513.786 500.638 527.051C685.868 541.832 679.44 619.906 743.288 860.854Z" fill="url(#paint0_linear_31813_2812)"/>
<path d="M25.0268 950.552C100.634 820.941 225.276 924.928 239.037 975.227H333.931C382.359 975.227 408.044 1073.69 365.313 1107.87C322.583 1142.06 244.003 1171.54 183.261 1175.91C109.967 1181.17 -64.6582 1104.3 25.0268 950.552Z" fill="url(#paint1_linear_31813_2812)"/>
<path d="M202.697 1037.62C204.804 1057.01 196.736 1134.56 136.525 1134.56C76.3138 1134.56 13.9883 1080.53 13.9883 1020.32C13.9883 960.113 55.093 908.588 115.304 908.588C175.515 908.588 202.697 1003.06 202.697 1037.62Z" fill="#F9746E" fill-opacity="0.73"/>
<path d="M112.375 977.229C115.188 995.446 125.478 1000.54 137.999 999.39C150.519 998.239 158.346 986.264 157.067 972.35C155.788 958.436 144.602 948.089 132.081 949.24C119.561 950.391 111.096 963.315 112.375 977.229Z" fill="url(#paint2_linear_31813_2812)"/>
<path d="M94.6131 1025.22C77.7856 1035.92 52.024 1060.82 69.2117 1095.34C86.3994 1129.87 121.37 1096.69 134.616 1089.41C147.862 1082.14 222.085 1058.7 162.148 1018.08C137.202 1005.3 107.859 1017.95 94.6131 1025.22Z" fill="url(#paint3_linear_31813_2812)"/>
<path d="M30.9798 1032.11C45.4938 1045.76 56.6793 1044.08 65.2851 1035.86C73.8908 1027.65 71.6068 1013.07 61.1735 1002.14C50.7402 991.21 35.3061 989.005 26.7003 997.218C18.0946 1005.43 20.5465 1021.17 30.9798 1032.11Z" fill="url(#paint4_linear_31813_2812)"/>
<path d="M60.5809 982.041C72.3391 1002.27 84.5056 1004.57 95.6259 998.807C106.746 993.043 108.057 976.327 99.8892 960.568C91.7212 944.809 76.0848 936.707 64.9645 942.47C53.8442 948.234 52.4128 966.282 60.5809 982.041Z" fill="url(#paint5_linear_31813_2812)"/>
<path d="M960.747 961.648C875.641 789.873 746.409 933.625 731.679 988.632C702.205 988.632 675.166 1007.99 633.698 1007.99C581.863 1007.99 581.194 1096.33 626.931 1133.72C672.667 1171.1 737.683 1195.14 802.698 1199.91C881.149 1205.66 1046.79 1135.32 960.747 961.648Z" fill="url(#paint6_linear_31813_2812)"/>
<path d="M975.521 948.132C892.839 806.391 756.531 920.11 741.482 975.117C711.368 975.117 683.742 994.474 641.374 994.474C588.414 994.474 569.037 1090.38 615.767 1127.76C662.496 1165.15 736.052 1189.81 802.478 1194.58C882.632 1200.33 1073.6 1116.27 975.521 948.132Z" fill="url(#paint7_linear_31813_2812)"/>
<path d="M781.223 1043.35C778.919 1064.56 787.742 1149.36 853.588 1149.36C919.434 1149.36 987.593 1090.28 987.593 1024.43C987.593 958.588 942.641 902.241 876.795 902.241C810.949 902.241 781.223 1005.56 781.223 1043.35Z" fill="#F9746E" fill-opacity="0.73"/>
<path d="M879.999 977.306C876.922 997.228 865.669 1002.8 851.976 1001.54C838.284 1000.28 829.725 987.187 831.123 971.97C832.522 956.754 844.755 945.439 858.447 946.698C872.14 947.956 881.397 962.09 879.999 977.306Z" fill="url(#paint8_linear_31813_2812)"/>
<path d="M899.422 1029.79C917.825 1041.49 945.997 1068.72 927.201 1106.48C908.405 1144.23 870.161 1107.94 855.675 1099.99C841.19 1092.03 760.021 1066.4 825.568 1021.98C852.847 1008 884.937 1021.84 899.422 1029.79Z" fill="url(#paint9_linear_31813_2812)"/>
<path d="M969.011 1037.32C953.139 1052.25 940.906 1050.41 931.495 1041.43C922.084 1032.45 924.582 1016.51 935.992 1004.55C947.401 992.595 964.28 990.184 973.691 999.166C983.102 1008.15 980.421 1025.36 969.011 1037.32Z" fill="url(#paint10_linear_31813_2812)"/>
<path d="M936.64 982.568C923.781 1004.69 910.476 1007.21 898.315 1000.9C886.154 994.6 884.72 976.319 893.653 959.086C902.585 941.852 919.685 932.991 931.846 939.294C944.007 945.597 945.572 965.334 936.64 982.568Z" fill="url(#paint11_linear_31813_2812)"/>
<path d="M704.287 737.905C700.849 696.704 648.816 611.431 676.922 620.704C802.361 674.095 832.586 985.621 785.223 1078.27C719.06 1207.7 556.971 1170.64 571.978 1110.47C571.978 1110.47 695.84 817.615 652.045 780.967C625.238 716.237 705.712 754.98 704.287 737.905Z" fill="#F16677"/>
<path d="M595.117 642.911C591.965 601.755 645.703 609.743 672.967 618.882C794.594 671.665 833.224 985.621 780.702 1074.02C706.522 1198.88 559.523 1164.9 583.188 1097.99C583.188 1097.99 695.912 821.761 653.53 785.338C627.78 720.778 596.424 659.967 595.117 642.911Z" fill="url(#paint12_linear_31813_2812)"/>
<path d="M279.996 770.585C281.658 729.143 326.735 645.035 301.025 653.351C186.724 702.577 170.234 1015.76 217.565 1110.99C283.685 1244.03 432.564 1212.63 416.427 1151.37C416.427 1151.37 290.775 851.319 330.015 815.964C352.469 751.649 279.307 787.76 279.996 770.585Z" fill="#F16677"/>
<path d="M377.676 678.783C379.076 637.376 329.558 643.447 304.624 651.659C193.834 700.412 169.643 1015.74 221.599 1106.87C294.981 1235.59 429.986 1206.75 405.573 1138.37C405.573 1138.37 290.862 855.5 328.801 820.32C350.281 756.136 377.096 695.943 377.676 678.783Z" fill="url(#paint13_linear_31813_2812)"/>
<path d="M717.732 652.808C614.321 799.222 416.293 738.079 329.281 691.763C446.544 674.765 686.202 637.109 696.176 637.019C706.151 636.928 713.208 650.425 717.732 652.808Z" fill="#F9746E"/>
<circle cx="656.176" cy="151.058" r="83.4289" transform="rotate(8.55574 656.176 151.058)" fill="black"/>
<circle cx="656.176" cy="151.058" r="83.4289" transform="rotate(8.55574 656.176 151.058)" fill="url(#paint14_linear_31813_2812)"/>
<circle cx="655.785" cy="147.548" r="83.4289" transform="rotate(8.55574 655.785 147.548)" fill="black"/>
<circle cx="655.785" cy="147.548" r="83.4289" transform="rotate(8.55574 655.785 147.548)" fill="url(#paint15_linear_31813_2812)"/>
<path d="M607.805 164.29C604.315 143.536 616.518 122.828 637.166 116.28C659.776 109.111 683.899 121.618 691.068 144.228C697.098 163.245 689.199 183.338 673.067 193.521L607.805 164.29Z" fill="#F16677"/>
<path d="M277.439 244.924C277.866 291.907 240.124 330.341 193.141 330.767C146.158 331.194 107.725 293.453 107.298 246.47C106.871 199.486 144.612 161.053 191.595 160.626C238.579 160.199 277.012 197.941 277.439 244.924Z" fill="black"/>
<path d="M277.439 244.924C277.866 291.907 240.124 330.341 193.141 330.767C146.158 331.194 107.725 293.453 107.298 246.47C106.871 199.486 144.612 161.053 191.595 160.626C238.579 160.199 277.012 197.941 277.439 244.924Z" fill="url(#paint16_linear_31813_2812)"/>
<path d="M195.162 297.539C173.715 296.777 155.527 280.346 153.213 258.379C150.68 234.325 168.113 212.789 192.167 210.256C212.399 208.125 230.854 220.13 237.724 238.33L195.162 297.539Z" fill="#F16677"/>
<path d="M794.081 541.196C621.122 823.8 256.857 714.752 187.766 599.676C146.908 626.812 153.877 588.833 162.469 566.451C132.098 586.244 153.872 537.255 162.077 523.24C168.64 512.029 161.827 495.792 161.735 485.605C158.915 328.108 201.593 287.294 235.901 242.374C263.348 206.438 318.22 183.077 342.224 175.889C353.206 161.849 342.06 157.769 341.971 148.011C341.9 140.206 365.143 151.054 376.773 157.453C373.912 148.186 368.429 125.467 369.388 108.73C370.346 91.993 398.678 122.868 412.724 140.398C413.607 135.743 417.303 124.744 425.018 117.982C434.662 109.531 443.272 140.12 454.38 140.019L496.037 139.641C695.018 153.446 782.352 320.12 801.146 401.731C859.314 445.811 834.952 454.396 815.5 453.179C853.623 491.865 831.612 494.388 815.842 490.814C827.376 537.548 806.14 543.875 794.081 541.196Z" fill="url(#paint17_linear_31813_2812)"/>
<path d="M793.631 537.25C620.773 818.595 256.745 710.048 187.703 595.489C146.87 622.505 153.836 584.695 162.423 562.413C132.071 582.119 153.832 533.348 162.032 519.396C168.592 508.234 161.784 492.07 161.692 481.929C158.879 325.136 201.531 284.503 235.819 239.783C263.25 204.007 318.087 180.749 342.076 173.593C353.052 159.615 341.913 155.553 341.824 145.839C341.754 138.069 364.981 148.867 376.604 155.238C373.745 146.012 368.266 123.395 369.225 106.733C370.183 90.0706 398.496 120.807 412.532 138.258C413.415 133.624 417.109 122.673 424.819 115.942C434.457 107.528 443.06 137.98 454.162 137.879L495.791 137.501C694.645 151.238 781.917 317.163 800.696 398.408C858.826 442.289 834.479 450.836 815.039 449.625C853.137 488.137 831.14 490.65 815.38 487.092C826.904 533.617 805.683 539.916 793.631 537.25Z" fill="url(#paint18_linear_31813_2812)"/>
<ellipse cx="493.98" cy="510.609" rx="112.903" ry="97.2841" transform="rotate(-7.17458 493.98 510.609)" fill="#FDCB99" fill-opacity="0.38"/>
<ellipse cx="497.118" cy="529.226" rx="9.40883" ry="6.13952" transform="rotate(-16.3432 497.118 529.226)" fill="#C15A55"/>
<ellipse cx="671.129" cy="452.682" rx="62.4696" ry="38.561" transform="rotate(-39.0017 671.129 452.682)" fill="#F9746E"/>
<ellipse cx="296.838" cy="547.208" rx="62.4696" ry="38.561" transform="rotate(9.39233 296.838 547.208)" fill="#F9746E"/>
<path d="M492.96 497.26C518.889 490.309 541.929 460.473 537.656 439.279C533.382 418.086 508.477 413.173 474.501 420.024L473.8 420.165C439.79 427.023 418.58 440.435 423.008 462.396C427.437 484.357 460.056 502.202 486.68 498.526L492.96 497.26Z" fill="#C15A55"/>
<path d="M523.545 345.897C548.374 337.91 570.362 340.874 579.753 342.617C593.612 341.287 604.707 342.621 610.262 323.831C615.817 305.042 596.862 291.737 583.985 289.099C571.108 286.461 529.67 289.882 514.688 295.744C488.006 311.212 492.509 355.881 523.545 345.897Z" fill="#F16677"/>
<path d="M523.898 340.103C548.071 332.11 569.326 334.601 578.396 336.119C591.842 334.641 603.745 337.972 609.413 319.975C615.08 301.978 595.745 287.354 583.311 285.035C570.877 282.717 530.685 286.609 516.082 292.426C490.001 307.578 493.681 350.094 523.898 340.103Z" fill="#F9746E"/>
<path d="M355.487 392.267C330.904 400.984 315.225 416.681 308.818 423.765C296.995 431.118 288.985 438.91 273.168 427.345C257.352 415.78 264.346 393.703 272.981 383.793C281.616 373.883 316.63 351.458 332.096 347.027C362.69 343.132 386.215 381.371 355.487 392.267Z" fill="#F16677"/>
<path d="M352.699 384.925C328.634 393.24 313.25 408.116 306.962 414.826C295.377 421.81 287.937 431.681 272.512 420.814C257.087 409.947 263.583 386.591 272.059 377.204C280.535 367.817 314.845 346.523 329.982 342.286C359.908 338.505 382.779 374.532 352.699 384.925Z" fill="#F9746E"/>
<path d="M535.519 402.432C542.233 415.925 551.941 406.431 571.374 402.432C590.808 398.433 618.018 396.134 614.435 385.574C610.853 375.014 590.01 370.145 567.882 374.697C545.754 379.25 531.937 391.872 535.519 402.432Z" fill="url(#paint19_linear_31813_2812)"/>
<path d="M329.288 476.094C339.362 487.303 346.181 475.56 363.84 466.515C381.499 457.47 407.105 447.985 400.832 438.766C394.558 429.547 373.173 430.423 353.065 440.722C332.957 451.021 323.015 466.875 329.288 476.094Z" fill="url(#paint20_linear_31813_2812)"/>
<path d="M548.109 391.205C547.523 402.867 548.59 409.473 565.375 404.744C582.16 400.015 585.212 400.909 595.41 397.881C609.114 363.591 551.018 378.965 573.896 376.179C564.757 374.007 549.395 382.52 548.109 391.205Z" fill="url(#paint21_linear_31813_2812)"/>
<path d="M338.421 461.911C340.971 473.306 343.765 479.387 358.676 470.345C373.588 461.304 376.768 461.35 385.786 455.708C389.831 419.004 337.954 449.339 359.256 440.542C349.869 440.891 337.34 453.199 338.421 461.911Z" fill="url(#paint22_linear_31813_2812)"/>
<path d="M612.78 382.05C598.939 373.326 563.853 363.26 534.237 392.792" stroke="#9E423D" stroke-width="13.8083" stroke-linecap="round"/>
<path d="M400.267 437.674C385.082 431.582 348.758 427.992 324.937 462.37" stroke="#9E423D" stroke-width="13.8083" stroke-linecap="round"/>
<defs>
<linearGradient id="paint0_linear_31813_2812" x1="496.244" y1="1003.07" x2="508.079" y2="692.018" gradientUnits="userSpaceOnUse">
<stop stop-color="#F9746E"/>
<stop offset="0.603435" stop-color="#FD8E78"/>
<stop offset="1" stop-color="#FD9068"/>
</linearGradient>
<linearGradient id="paint1_linear_31813_2812" x1="328.248" y1="1062.07" x2="172.541" y2="1039.41" gradientUnits="userSpaceOnUse">
<stop stop-color="#F9746E"/>
<stop offset="1" stop-color="#FD916B"/>
</linearGradient>
<linearGradient id="paint2_linear_31813_2812" x1="65.2209" y1="942.338" x2="94.7303" y2="999.271" gradientUnits="userSpaceOnUse">
<stop stop-color="#C15A55"/>
</linearGradient>
<linearGradient id="paint3_linear_31813_2812" x1="137.167" y1="1064.6" x2="89.3122" y2="1090.88" gradientUnits="userSpaceOnUse">
<stop stop-color="#C15A55"/>
</linearGradient>
<linearGradient id="paint4_linear_31813_2812" x1="65.2209" y1="942.338" x2="94.7303" y2="999.271" gradientUnits="userSpaceOnUse">
<stop stop-color="#C15A55"/>
</linearGradient>
<linearGradient id="paint5_linear_31813_2812" x1="65.2209" y1="942.338" x2="94.7303" y2="999.271" gradientUnits="userSpaceOnUse">
<stop stop-color="#C15A55"/>
</linearGradient>
<linearGradient id="paint6_linear_31813_2812" x1="582.758" y1="1110.44" x2="808.705" y2="1178.51" gradientUnits="userSpaceOnUse">
<stop stop-color="#F16677"/>
</linearGradient>
<linearGradient id="paint7_linear_31813_2812" x1="643.922" y1="1070.08" x2="814.202" y2="1045.31" gradientUnits="userSpaceOnUse">
<stop stop-color="#F9746E"/>
<stop offset="1" stop-color="#FD916B"/>
</linearGradient>
<linearGradient id="paint8_linear_31813_2812" x1="931.565" y1="939.149" x2="899.294" y2="1001.41" gradientUnits="userSpaceOnUse">
<stop stop-color="#C15A55"/>
</linearGradient>
<linearGradient id="paint9_linear_31813_2812" x1="852.886" y1="1072.85" x2="905.219" y2="1101.59" gradientUnits="userSpaceOnUse">
<stop stop-color="#C15A55"/>
</linearGradient>
<linearGradient id="paint10_linear_31813_2812" x1="931.565" y1="939.149" x2="899.294" y2="1001.41" gradientUnits="userSpaceOnUse">
<stop stop-color="#C15A55"/>
</linearGradient>
<linearGradient id="paint11_linear_31813_2812" x1="931.565" y1="939.149" x2="899.294" y2="1001.41" gradientUnits="userSpaceOnUse">
<stop stop-color="#C15A55"/>
</linearGradient>
<linearGradient id="paint12_linear_31813_2812" x1="920.339" y1="1068.36" x2="654.703" y2="717.407" gradientUnits="userSpaceOnUse">
<stop stop-color="#F9746E"/>
<stop offset="0.507388" stop-color="#FD956F"/>
<stop offset="1" stop-color="#FD9069"/>
</linearGradient>
<linearGradient id="paint13_linear_31813_2812" x1="91.9522" y1="1095.99" x2="357.72" y2="779.004" gradientUnits="userSpaceOnUse">
<stop stop-color="#F9746E"/>
<stop offset="0.507388" stop-color="#FD956F"/>
<stop offset="1" stop-color="#FD9069"/>
</linearGradient>
<linearGradient id="paint14_linear_31813_2812" x1="674.762" y1="67.6294" x2="629.272" y2="162.735" gradientUnits="userSpaceOnUse">
<stop stop-color="#F16677"/>
</linearGradient>
<linearGradient id="paint15_linear_31813_2812" x1="674.372" y1="64.1192" x2="628.882" y2="159.225" gradientUnits="userSpaceOnUse">
<stop stop-color="#F77870"/>
<stop offset="1" stop-color="#FD9276"/>
</linearGradient>
<linearGradient id="paint16_linear_31813_2812" x1="116.23" y1="188.017" x2="192.592" y2="270.35" gradientUnits="userSpaceOnUse">
<stop offset="0.00961538" stop-color="#F9746E"/>
<stop offset="1" stop-color="#FD9177"/>
</linearGradient>
<linearGradient id="paint17_linear_31813_2812" x1="714.906" y1="620.67" x2="711.563" y2="618.375" gradientUnits="userSpaceOnUse">
<stop offset="1" stop-color="#F67970"/>
</linearGradient>
<linearGradient id="paint18_linear_31813_2812" x1="564.022" y1="591.106" x2="604.234" y2="687.905" gradientUnits="userSpaceOnUse">
<stop stop-color="#FD9276"/>
<stop offset="1" stop-color="#F67970"/>
</linearGradient>
<linearGradient id="paint19_linear_31813_2812" x1="571.106" y1="374.593" x2="579.619" y2="413.545" gradientUnits="userSpaceOnUse">
<stop stop-color="white"/>
</linearGradient>
<linearGradient id="paint20_linear_31813_2812" x1="356.144" y1="439.759" x2="374.754" y2="475.022" gradientUnits="userSpaceOnUse">
<stop stop-color="white"/>
</linearGradient>
<linearGradient id="paint21_linear_31813_2812" x1="580.308" y1="363.251" x2="567.025" y2="406.923" gradientUnits="userSpaceOnUse">
<stop stop-color="#9E423D"/>
</linearGradient>
<linearGradient id="paint22_linear_31813_2812" x1="361.981" y1="426.372" x2="360.848" y2="472.004" gradientUnits="userSpaceOnUse">
<stop stop-color="#9E423D"/>
</linearGradient>
</defs>
</svg>
