<svg width="1140" height="1283" viewBox="0 0 1140 1283" fill="none" xmlns="http://www.w3.org/2000/svg">
<path d="M885.388 911.519C892.056 936.68 894.857 962.989 892.333 988.896C878.351 1132.42 847.228 1197.1 593.313 1197.1C373.872 1197.1 340.22 1108.9 342.556 985.341C343.751 922.164 363.59 860.94 388.888 803.036C457.275 646.505 476.515 564.451 642.738 577.715C827.969 592.496 821.541 670.571 885.388 911.519Z" fill="#F16677"/>
<path d="M880.363 899.62C887.03 924.781 889.832 951.091 887.308 976.997C873.326 1120.52 842.203 1185.21 588.287 1185.21C368.847 1185.21 335.194 1097.01 337.531 973.442C338.726 910.265 358.565 849.041 383.863 791.138C452.25 634.606 471.49 552.553 637.713 565.817C822.943 580.598 816.515 658.672 880.363 899.62Z" fill="url(#paint0_linear_31807_1824)"/>
<path d="M162.103 989.319C237.71 859.707 362.352 963.695 376.113 1013.99H471.007C519.435 1013.99 545.12 1112.45 502.389 1146.64C459.659 1180.82 381.079 1210.31 320.337 1214.67C247.043 1219.94 72.4179 1143.06 162.103 989.319Z" fill="url(#paint1_linear_31807_1824)"/>
<path d="M339.773 1076.39C341.88 1095.78 333.812 1173.33 273.601 1173.33C213.39 1173.33 151.064 1119.3 151.064 1059.09C151.064 998.879 192.169 947.355 252.38 947.355C312.591 947.355 339.773 1041.83 339.773 1076.39Z" fill="#F9746E" fill-opacity="0.73"/>
<path d="M249.451 1016C252.265 1034.21 262.555 1039.31 275.075 1038.16C287.595 1037.01 295.422 1025.03 294.143 1011.12C292.865 997.203 281.678 986.856 269.158 988.007C256.637 989.158 248.172 1002.08 249.451 1016Z" fill="url(#paint2_linear_31807_1824)"/>
<path d="M231.689 1063.99C214.862 1074.69 189.1 1099.58 206.288 1134.11C223.476 1168.64 258.447 1135.45 271.693 1128.18C284.938 1120.9 359.161 1097.46 299.224 1056.84C274.278 1044.07 244.935 1056.72 231.689 1063.99Z" fill="url(#paint3_linear_31807_1824)"/>
<path d="M168.056 1070.87C182.57 1084.53 193.756 1082.84 202.361 1074.63C210.967 1066.42 208.683 1051.84 198.25 1040.91C187.816 1029.98 172.382 1027.77 163.777 1035.98C155.171 1044.2 157.623 1059.94 168.056 1070.87Z" fill="url(#paint4_linear_31807_1824)"/>
<path d="M197.657 1020.81C209.415 1041.04 221.582 1043.34 232.702 1037.57C243.822 1031.81 245.133 1015.09 236.965 999.335C228.797 983.576 213.161 975.473 202.041 981.237C190.92 987.001 189.489 1005.05 197.657 1020.81Z" fill="url(#paint5_linear_31807_1824)"/>
<path d="M1097.82 1000.41C1012.72 828.639 883.484 972.392 868.755 1027.4C839.28 1027.4 812.241 1046.76 770.773 1046.76C718.938 1046.76 718.269 1135.1 764.006 1172.48C809.743 1209.87 874.758 1233.9 939.774 1238.67C1018.22 1244.43 1183.86 1174.08 1097.82 1000.41Z" fill="url(#paint6_linear_31807_1824)"/>
<path d="M1112.6 986.899C1029.91 845.157 893.606 958.876 878.557 1013.88C848.443 1013.88 820.817 1033.24 778.449 1033.24C725.489 1033.24 706.113 1129.15 752.842 1166.53C799.572 1203.91 873.127 1228.57 939.554 1233.34C1019.71 1239.1 1210.67 1155.03 1112.6 986.899Z" fill="url(#paint7_linear_31807_1824)"/>
<path d="M918.298 1082.12C915.993 1103.32 924.817 1188.13 990.663 1188.13C1056.51 1188.13 1124.67 1129.05 1124.67 1063.2C1124.67 997.354 1079.72 941.008 1013.87 941.008C948.024 941.008 918.298 1044.32 918.298 1082.12Z" fill="#F9746E" fill-opacity="0.73"/>
<path d="M1017.07 1016.07C1014 1035.99 1002.74 1041.57 989.051 1040.31C975.359 1039.05 966.799 1025.95 968.198 1010.74C969.597 995.521 981.83 984.206 995.522 985.464C1009.21 986.723 1018.47 1000.86 1017.07 1016.07Z" fill="url(#paint8_linear_31807_1824)"/>
<path d="M1036.5 1068.56C1054.9 1080.26 1083.07 1107.48 1064.28 1145.24C1045.48 1183 1007.24 1146.71 992.75 1138.76C978.264 1130.8 897.096 1105.17 962.642 1060.74C989.922 1046.77 1022.01 1060.6 1036.5 1068.56Z" fill="url(#paint9_linear_31807_1824)"/>
<path d="M1106.09 1076.08C1090.21 1091.02 1077.98 1089.18 1068.57 1080.19C1059.16 1071.21 1061.66 1055.27 1073.07 1043.32C1084.48 1031.36 1101.35 1028.95 1110.77 1037.93C1120.18 1046.91 1117.5 1064.13 1106.09 1076.08Z" fill="url(#paint10_linear_31807_1824)"/>
<path d="M1073.71 1021.33C1060.86 1043.46 1047.55 1045.97 1035.39 1039.67C1023.23 1033.37 1021.79 1015.09 1030.73 997.852C1039.66 980.619 1056.76 971.758 1068.92 978.061C1081.08 984.364 1082.65 1004.1 1073.71 1021.33Z" fill="url(#paint11_linear_31807_1824)"/>
<path d="M841.363 776.672C837.925 735.47 785.892 650.198 813.998 659.471C939.438 712.862 969.662 1024.39 922.3 1117.04C856.137 1246.47 694.047 1209.41 709.054 1149.23C709.054 1149.23 832.916 856.382 789.121 819.733C762.314 755.004 842.788 793.747 841.363 776.672Z" fill="#F16677"/>
<path d="M732.194 681.678C729.041 640.522 782.78 648.51 810.043 657.649C931.67 710.431 970.3 1024.39 917.778 1112.79C843.598 1237.64 696.599 1203.66 720.265 1136.76C720.265 1136.76 832.988 860.528 790.606 824.105C764.856 759.544 733.5 698.734 732.194 681.678Z" fill="url(#paint12_linear_31807_1824)"/>
<path d="M417.072 809.352C418.734 767.91 463.811 683.801 438.101 692.117C323.799 741.343 307.31 1054.53 354.641 1149.76C420.761 1282.79 569.64 1251.4 553.503 1190.14C553.503 1190.14 427.851 890.086 467.091 854.731C489.545 790.416 416.383 826.527 417.072 809.352Z" fill="#F16677"/>
<path d="M514.752 717.55C516.152 676.143 466.634 682.214 441.7 690.425C330.91 739.179 306.718 1054.51 358.675 1145.64C432.057 1274.36 567.062 1245.51 542.649 1177.14C542.649 1177.14 427.938 894.266 465.876 859.087C487.357 794.902 514.172 734.71 514.752 717.55Z" fill="url(#paint13_linear_31807_1824)"/>
<path d="M844.036 672.77C788.95 843.347 581.698 843.99 484.838 825.706C591.71 774.538 809.259 667.18 818.754 664.121C828.248 661.063 839.007 671.843 844.036 672.77Z" fill="#F9746E"/>
<circle cx="635.765" cy="212.157" r="83.4289" transform="rotate(-8.78054 635.765 212.157)" fill="black"/>
<circle cx="635.765" cy="212.157" r="83.4289" transform="rotate(-8.78054 635.765 212.157)" fill="url(#paint14_linear_31807_1824)"/>
<circle cx="634.346" cy="208.922" r="83.4289" transform="rotate(-8.78054 634.346 208.922)" fill="black"/>
<circle cx="634.346" cy="208.922" r="83.4289" transform="rotate(-8.78054 634.346 208.922)" fill="url(#paint15_linear_31807_1824)"/>
<path d="M593.534 239.201C584.018 220.43 589.496 197.026 607.256 184.623C626.702 171.042 653.455 175.793 667.036 195.239C678.459 211.595 676.906 233.13 664.541 247.657L593.534 239.201Z" fill="#F16677"/>
<path d="M302.203 414.614C316.61 459.336 292.036 507.269 247.314 521.677C202.593 536.084 154.659 511.51 140.252 466.788C125.844 422.067 150.419 374.133 195.14 359.725C239.862 345.318 287.796 369.893 302.203 414.614Z" fill="black"/>
<path d="M302.203 414.614C316.61 459.336 292.036 507.269 247.314 521.677C202.593 536.084 154.659 511.51 140.252 466.788C125.844 422.067 150.419 374.133 195.14 359.725C239.862 345.318 287.796 369.893 302.203 414.614Z" fill="url(#paint16_linear_31807_1824)"/>
<path d="M239.342 489.356C218.642 495.019 196.384 484.755 187.63 464.475C178.045 442.269 188.268 416.516 210.475 406.93C229.152 398.868 250.346 404.828 262.327 420.154L239.342 489.356Z" fill="#F16677"/>
<path d="M883.659 543.479C802.766 864.783 422.555 869.232 322.313 779.972C291.397 818.049 286.732 779.719 288.265 755.794C265.171 783.737 271.358 730.486 275.014 714.663C277.939 702.005 266.597 688.536 263.473 678.839C213.851 529.337 242.428 477.66 261.793 424.557C277.285 382.075 322.702 343.426 343.475 329.411C349.774 312.737 337.918 312.163 334.926 302.875C332.532 295.445 357.952 298.874 370.961 301.518C365.468 293.524 353.464 273.471 349.392 257.208C345.32 240.946 381.565 261.977 400.196 274.525C399.652 269.818 399.902 258.217 405.252 249.464C411.94 238.522 429.273 265.157 439.847 261.751L479.498 248.977C673.555 202.862 806.586 335.941 848.845 408.244C917.506 432.989 896.808 448.443 877.877 453.078C925.796 478.646 905.537 487.614 889.418 488.901C914.353 530.076 895.968 542.442 883.659 543.479Z" fill="url(#paint17_linear_31807_1824)"/>
<path d="M882.053 539.846C800.882 859.919 421.046 864.775 321.005 775.994C290.077 813.95 285.46 775.782 287.017 751.953C263.916 779.808 270.156 726.768 273.826 711.007C276.762 698.397 265.446 684.996 262.337 675.343C212.931 526.511 241.538 475.015 260.942 422.109C276.466 379.784 321.882 341.243 342.649 327.263C348.961 310.65 337.117 310.092 334.139 300.845C331.756 293.449 357.146 296.835 370.139 299.453C364.66 291.499 352.691 271.541 348.641 255.35C344.592 239.16 380.776 260.063 399.375 272.539C398.837 267.852 399.1 256.298 404.454 247.575C411.147 236.671 428.434 263.177 439.001 259.773L478.627 247.007C672.54 200.865 805.29 333.247 847.425 405.206C915.99 429.772 895.296 445.186 876.378 449.823C924.221 475.233 903.972 484.186 887.868 485.486C912.732 526.463 894.352 538.8 882.053 539.846Z" fill="url(#paint18_linear_31807_1824)"/>
<ellipse cx="588.076" cy="603.705" rx="112.903" ry="97.2841" transform="rotate(-24.5109 588.076 603.705)" fill="#FDCB99" fill-opacity="0.38"/>
<path d="M646.738 594.355C632.791 614.394 620.584 616.099 596.185 613.441C587.248 639.085 577.924 646.249 554.401 647.487" stroke="#9E423D" stroke-width="6.37305" stroke-linecap="round"/>
<ellipse cx="739.916" cy="495.622" rx="62.4696" ry="38.561" transform="rotate(-56.3379 739.916 495.622)" fill="#F9746E"/>
<ellipse cx="410.795" cy="697.385" rx="62.4696" ry="38.561" transform="rotate(-7.94394 410.795 697.385)" fill="#F9746E"/>
<path d="M583.124 591.266C605.804 576.905 618.907 541.558 608.512 522.601C598.118 503.643 572.88 506.375 542.489 523.038L541.861 523.382C511.44 540.063 495.191 559.186 505.962 578.83C516.732 598.474 553.187 605.788 577.507 594.345L583.124 591.266Z" fill="#C15A55"/>
<path d="M575.933 363.091C600.204 353.54 622.336 355.099 631.819 356.241C645.566 354.032 656.723 354.657 661.071 335.552C665.419 316.447 645.655 304.376 632.637 302.562C619.618 300.749 578.481 306.8 563.903 313.604C538.259 330.738 545.595 375.03 575.933 363.091Z" fill="#F16677"/>
<path d="M575.917 357.286C599.533 347.771 620.903 348.904 630.051 349.842C643.375 347.511 655.467 350.079 659.978 331.757C664.488 313.436 644.262 300.072 631.705 298.549C619.149 297.027 579.286 303.469 565.083 310.204C540.019 326.985 546.397 369.18 575.917 357.286Z" fill="#F9746E"/>
<path d="M377.263 477.232C356.394 492.878 346.105 512.535 342.1 521.205C333.005 531.747 327.681 541.573 309.137 535.246C290.592 528.919 290.69 505.761 295.98 493.728C301.27 481.695 328.01 449.856 341.454 441.017C369.497 428.183 403.348 457.675 377.263 477.232Z" fill="#F16677"/>
<path d="M372.414 471.055C351.92 486.163 341.668 504.947 337.665 513.226C328.687 523.344 324.526 534.984 306.564 529.207C288.601 523.431 287.842 499.2 293.136 487.713C298.431 476.226 324.837 445.676 338.023 437.122C365.463 424.595 398.031 452.17 372.414 471.055Z" fill="#F9746E"/>
<path d="M405.614 603.095C421.764 605.714 457.993 601.261 473.707 562.501" stroke="#9E423D" stroke-width="13.8083" stroke-linecap="round"/>
<path d="M596.131 490.673C615.13 498.336 651.795 490.673 668.818 452.505" stroke="#9E423D" stroke-width="13.8083" stroke-linecap="round"/>
<defs>
<linearGradient id="paint0_linear_31807_1824" x1="633.319" y1="1041.84" x2="645.154" y2="730.785" gradientUnits="userSpaceOnUse">
<stop stop-color="#F9746E"/>
<stop offset="0.603435" stop-color="#FD8E78"/>
<stop offset="1" stop-color="#FD9068"/>
</linearGradient>
<linearGradient id="paint1_linear_31807_1824" x1="465.324" y1="1100.83" x2="309.617" y2="1078.18" gradientUnits="userSpaceOnUse">
<stop stop-color="#F9746E"/>
<stop offset="1" stop-color="#FD916B"/>
</linearGradient>
<linearGradient id="paint2_linear_31807_1824" x1="202.297" y1="981.104" x2="231.806" y2="1038.04" gradientUnits="userSpaceOnUse">
<stop stop-color="#C15A55"/>
</linearGradient>
<linearGradient id="paint3_linear_31807_1824" x1="274.243" y1="1103.36" x2="226.388" y2="1129.64" gradientUnits="userSpaceOnUse">
<stop stop-color="#C15A55"/>
</linearGradient>
<linearGradient id="paint4_linear_31807_1824" x1="202.297" y1="981.104" x2="231.806" y2="1038.04" gradientUnits="userSpaceOnUse">
<stop stop-color="#C15A55"/>
</linearGradient>
<linearGradient id="paint5_linear_31807_1824" x1="202.297" y1="981.104" x2="231.806" y2="1038.04" gradientUnits="userSpaceOnUse">
<stop stop-color="#C15A55"/>
</linearGradient>
<linearGradient id="paint6_linear_31807_1824" x1="719.833" y1="1149.2" x2="945.78" y2="1217.27" gradientUnits="userSpaceOnUse">
<stop stop-color="#F16677"/>
</linearGradient>
<linearGradient id="paint7_linear_31807_1824" x1="780.998" y1="1108.85" x2="951.277" y2="1084.08" gradientUnits="userSpaceOnUse">
<stop stop-color="#F9746E"/>
<stop offset="1" stop-color="#FD916B"/>
</linearGradient>
<linearGradient id="paint8_linear_31807_1824" x1="1068.64" y1="977.915" x2="1036.37" y2="1040.18" gradientUnits="userSpaceOnUse">
<stop stop-color="#C15A55"/>
</linearGradient>
<linearGradient id="paint9_linear_31807_1824" x1="989.961" y1="1111.62" x2="1042.29" y2="1140.36" gradientUnits="userSpaceOnUse">
<stop stop-color="#C15A55"/>
</linearGradient>
<linearGradient id="paint10_linear_31807_1824" x1="1068.64" y1="977.915" x2="1036.37" y2="1040.18" gradientUnits="userSpaceOnUse">
<stop stop-color="#C15A55"/>
</linearGradient>
<linearGradient id="paint11_linear_31807_1824" x1="1068.64" y1="977.915" x2="1036.37" y2="1040.18" gradientUnits="userSpaceOnUse">
<stop stop-color="#C15A55"/>
</linearGradient>
<linearGradient id="paint12_linear_31807_1824" x1="1057.41" y1="1107.12" x2="791.779" y2="756.173" gradientUnits="userSpaceOnUse">
<stop stop-color="#F9746E"/>
<stop offset="0.507388" stop-color="#FD956F"/>
<stop offset="1" stop-color="#FD9069"/>
</linearGradient>
<linearGradient id="paint13_linear_31807_1824" x1="229.028" y1="1134.76" x2="494.796" y2="817.771" gradientUnits="userSpaceOnUse">
<stop stop-color="#F9746E"/>
<stop offset="0.507388" stop-color="#FD956F"/>
<stop offset="1" stop-color="#FD9069"/>
</linearGradient>
<linearGradient id="paint14_linear_31807_1824" x1="654.351" y1="128.728" x2="608.861" y2="223.834" gradientUnits="userSpaceOnUse">
<stop stop-color="#F16677"/>
</linearGradient>
<linearGradient id="paint15_linear_31807_1824" x1="652.932" y1="125.493" x2="607.442" y2="220.599" gradientUnits="userSpaceOnUse">
<stop stop-color="#F77870"/>
<stop offset="1" stop-color="#FD9276"/>
</linearGradient>
<linearGradient id="paint16_linear_31807_1824" x1="131.361" y1="408.329" x2="228.787" y2="464.168" gradientUnits="userSpaceOnUse">
<stop offset="0.00961538" stop-color="#F9746E"/>
<stop offset="1" stop-color="#FD9177"/>
</linearGradient>
<linearGradient id="paint17_linear_31807_1824" x1="831.762" y1="642.935" x2="827.887" y2="641.741" gradientUnits="userSpaceOnUse">
<stop offset="1" stop-color="#F67970"/>
</linearGradient>
<linearGradient id="paint18_linear_31807_1824" x1="678.923" y1="659.675" x2="746.152" y2="740.094" gradientUnits="userSpaceOnUse">
<stop stop-color="#FD9276"/>
<stop offset="1" stop-color="#F67970"/>
</linearGradient>
</defs>
</svg>
