<svg width="1546" height="1678" viewBox="0 0 1546 1678" fill="none" xmlns="http://www.w3.org/2000/svg">
<path d="M605.1 784.224C611.138 749.273 564.519 751.744 540.454 757.348C432.123 792.627 311.599 1056.62 303.511 1131.02C290.026 1255.09 405.214 1265.9 440.916 1173.32C440.916 1173.32 504.355 929.039 543.568 901.322C570.837 848.184 602.598 798.709 605.1 784.224Z" fill="#F16677"/>
<circle cx="982.096" cy="338.034" r="89.212" transform="rotate(25.2864 982.096 338.034)" fill="black"/>
<circle cx="982.096" cy="338.034" r="89.212" transform="rotate(25.2864 982.096 338.034)" fill="url(#paint0_linear_31812_2454)"/>
<circle cx="982.776" cy="334.32" r="89.212" transform="rotate(25.2864 982.776 334.32)" fill="black"/>
<circle cx="982.776" cy="334.32" r="89.212" transform="rotate(25.2864 982.776 334.32)" fill="url(#paint1_linear_31812_2454)"/>
<path d="M928.488 336.695C931.302 314.367 950.174 296.917 973.334 296.568C998.695 296.186 1019.55 316.42 1019.93 341.781C1020.25 363.111 1005.98 381.256 986.321 386.718L928.488 336.695Z" fill="#F16677"/>
<path d="M565.354 317.573C551.329 365.817 500.849 393.557 452.604 379.532C404.359 365.506 376.619 315.026 390.645 266.781C404.671 218.537 455.151 190.797 503.395 204.822C551.64 218.848 579.38 269.328 565.354 317.573Z" fill="black"/>
<path d="M565.354 317.573C551.329 365.817 500.849 393.557 452.604 379.532C404.359 365.506 376.619 315.026 390.645 266.781C404.671 218.537 455.151 190.797 503.395 204.822C551.64 218.848 579.38 269.328 565.354 317.573Z" fill="url(#paint2_linear_31812_2454)"/>
<path d="M464.902 346.126C443.174 338.744 429.606 316.319 433.999 293.112C438.809 267.699 463.291 251.011 488.704 255.822C510.078 259.868 525.281 277.842 526.714 298.595L464.902 346.126Z" fill="#F16677"/>
<path d="M969.505 852.209C751.693 1094.87 555.263 903.817 484.275 777.956C632.549 792.949 932.025 823.914 943.74 827.828C955.454 831.742 965.798 845.713 969.505 852.209Z" fill="#F9746E"/>
<path d="M963.782 1083.44C970.058 1107.13 972.696 1131.9 970.32 1156.29C957.156 1291.41 927.855 1352.31 688.803 1352.31C482.208 1352.31 450.525 1269.27 452.725 1152.94C453.85 1093.46 472.527 1035.82 496.344 981.311C560.729 833.942 578.842 756.691 735.335 769.179C909.723 783.095 903.671 856.599 963.782 1083.44Z" fill="#F16677"/>
<path d="M959.05 1072.24C965.327 1095.93 967.965 1120.7 965.589 1145.09C952.425 1280.21 923.124 1341.11 684.072 1341.11C477.477 1341.11 445.794 1258.07 447.994 1141.74C449.118 1082.26 467.796 1024.62 491.613 970.108C555.998 822.74 574.111 745.489 730.604 757.977C904.992 771.893 898.94 845.397 959.05 1072.24Z" fill="url(#paint3_linear_31812_2454)"/>
<path d="M199.873 1159.85C277.716 1026.4 406.044 1133.46 420.212 1185.25H517.912C567.772 1185.25 594.217 1286.62 550.223 1321.82C506.228 1357.02 425.325 1387.37 362.786 1391.87C287.325 1397.29 107.536 1318.14 199.873 1159.85Z" fill="url(#paint4_linear_31812_2454)"/>
<path d="M382.797 1249.49C384.967 1269.45 376.66 1349.3 314.668 1349.3C252.677 1349.3 188.508 1293.67 188.508 1231.68C188.508 1169.69 230.828 1116.64 292.82 1116.64C354.812 1116.64 382.797 1213.91 382.797 1249.49Z" fill="#F9746E" fill-opacity="0.73"/>
<path d="M289.804 1187.31C292.701 1206.07 303.295 1211.31 316.186 1210.13C329.077 1208.94 337.135 1196.62 335.818 1182.29C334.502 1167.96 322.984 1157.31 310.094 1158.5C297.203 1159.68 288.487 1172.99 289.804 1187.31Z" fill="url(#paint5_linear_31812_2454)"/>
<path d="M271.517 1236.73C254.192 1247.74 227.669 1273.37 245.365 1308.92C263.061 1344.47 299.066 1310.3 312.703 1302.81C326.341 1295.32 402.759 1271.19 341.049 1229.37C315.366 1216.21 285.155 1229.24 271.517 1236.73Z" fill="url(#paint6_linear_31812_2454)"/>
<path d="M206.002 1243.81C220.945 1257.87 232.462 1256.14 241.322 1247.68C250.182 1239.23 247.831 1224.22 237.089 1212.96C226.347 1201.71 210.456 1199.44 201.596 1207.89C192.736 1216.35 195.26 1232.56 206.002 1243.81Z" fill="url(#paint7_linear_31812_2454)"/>
<path d="M236.479 1192.27C248.585 1213.09 261.111 1215.46 272.56 1209.53C284.009 1203.59 285.359 1186.38 276.949 1170.16C268.54 1153.93 252.441 1145.59 240.992 1151.53C229.543 1157.46 228.069 1176.04 236.479 1192.27Z" fill="url(#paint8_linear_31812_2454)"/>
<path d="M1196.85 1174.93C1116.73 1013.21 995.063 1148.54 981.195 1200.33C953.446 1200.33 927.99 1218.56 888.949 1218.56C840.148 1218.56 839.519 1301.73 882.578 1336.92C925.638 1372.12 986.848 1394.75 1048.06 1399.24C1121.92 1404.66 1277.86 1338.43 1196.85 1174.93Z" fill="url(#paint9_linear_31812_2454)"/>
<path d="M1210.76 1162.2C1132.92 1028.76 1004.59 1135.82 990.424 1187.61C962.073 1187.61 936.064 1205.83 896.176 1205.83C846.316 1205.83 828.074 1296.12 872.068 1331.32C916.062 1366.51 985.312 1389.73 1047.85 1394.22C1123.31 1399.64 1303.1 1320.5 1210.76 1162.2Z" fill="url(#paint10_linear_31812_2454)"/>
<path d="M1027.84 1251.85C1025.67 1271.81 1033.98 1351.66 1095.97 1351.66C1157.96 1351.66 1222.13 1296.03 1222.13 1234.04C1222.13 1172.05 1179.81 1119 1117.82 1119C1055.82 1119 1027.84 1216.27 1027.84 1251.85Z" fill="#F9746E" fill-opacity="0.73"/>
<path d="M1120.83 1189.67C1117.94 1208.42 1107.34 1213.67 1094.45 1212.48C1081.56 1211.3 1073.5 1198.97 1074.82 1184.65C1076.13 1170.32 1087.65 1159.67 1100.54 1160.85C1113.43 1162.04 1122.15 1175.34 1120.83 1189.67Z" fill="url(#paint11_linear_31812_2454)"/>
<path d="M1139.12 1239.08C1156.44 1250.09 1182.97 1275.73 1165.27 1311.28C1147.58 1346.83 1111.57 1312.66 1097.93 1305.17C1084.3 1297.68 1007.88 1273.55 1069.59 1231.72C1095.27 1218.57 1125.48 1231.59 1139.12 1239.08Z" fill="url(#paint12_linear_31812_2454)"/>
<path d="M1204.63 1246.17C1189.69 1260.23 1178.17 1258.49 1169.31 1250.04C1160.45 1241.58 1162.81 1226.57 1173.55 1215.32C1184.29 1204.06 1200.18 1201.79 1209.04 1210.25C1217.9 1218.7 1215.38 1234.91 1204.63 1246.17Z" fill="url(#paint13_linear_31812_2454)"/>
<path d="M1174.16 1194.62C1162.05 1215.45 1149.53 1217.82 1138.08 1211.88C1126.63 1205.95 1125.28 1188.74 1133.69 1172.51C1142.1 1156.29 1158.2 1147.95 1169.64 1153.88C1181.09 1159.82 1182.57 1178.4 1174.16 1194.62Z" fill="url(#paint14_linear_31812_2454)"/>
<path d="M603.1 781.224C609.138 746.273 562.519 748.744 538.454 754.348C430.123 789.627 309.599 1053.62 301.511 1128.02C288.026 1252.09 403.214 1262.9 438.916 1170.32C438.916 1170.32 502.355 926.039 541.568 898.322C568.837 845.184 600.598 795.709 603.1 781.224Z" fill="url(#paint15_linear_31812_2454)"/>
<path d="M876.817 854.463C861.349 822.48 822.801 793.173 848.202 791.939C965.278 796.062 1120.52 997.371 1148.71 1066.77C1195.73 1182.49 1048.15 1237.67 987.619 1158.38C987.619 1158.38 894.632 920.998 848.202 905.116C806.734 861.471 883.227 867.718 876.817 854.463Z" fill="#F16677"/>
<path d="M759.956 811.955C744.731 779.92 790.295 769.748 814.98 768.667C928.809 773.478 1115.96 995.278 1143.78 1064.76C1190.16 1180.61 1052.07 1224.46 992.762 1144.92C992.762 1144.92 895.969 924.301 850.742 908.164C810.173 864.329 766.266 825.231 759.956 811.955Z" fill="url(#paint16_linear_31812_2454)"/>
<path d="M1003.22 780.008C739.11 1016.17 399.651 792.365 364.323 653.254C314.129 668.465 332.957 631.718 348.645 611.443C311.451 622.362 348.828 578.898 361.544 567.072C371.717 557.611 369.738 538.886 372.779 528.426C418.374 366.273 474.642 337.614 523.603 302.175C562.772 273.824 626.154 266.793 652.949 266.821C668.517 255.824 658.359 248.214 661.271 238.195C663.602 230.179 684.064 248.443 694.004 258.577C693.927 248.205 695.305 223.252 701.439 206.408C707.573 189.563 727.082 229.902 736.069 252.177C738.407 247.683 745.578 237.556 755.56 233.007C768.037 227.321 767.438 261.297 778.844 264.613L821.619 277.048C1021.14 352.438 1059.26 550.004 1053.39 639.363C1099.39 702.409 1071.8 703.702 1052.25 696.467C1079.38 747.819 1056.07 743.628 1041.02 735.113C1038.44 786.521 1014.75 786.463 1003.22 780.008Z" fill="url(#paint17_linear_31812_2454)"/>
<path d="M1003.98 775.828C740.354 1010.73 400.985 787.514 365.546 648.947C315.415 664.043 334.187 627.468 349.84 607.294C312.692 618.13 349.99 574.885 362.682 563.121C372.835 553.71 370.839 535.062 373.866 524.649C419.252 363.219 475.438 334.738 524.316 299.497C563.42 271.304 626.735 264.368 653.505 264.423C669.047 253.488 658.89 245.9 661.79 235.925C664.11 227.946 684.572 246.154 694.513 256.256C694.425 245.928 695.776 221.08 701.887 204.312C707.998 187.545 727.53 227.735 736.532 249.927C738.863 245.453 746.016 235.376 755.984 230.856C768.444 225.207 767.88 259.04 779.279 262.354L822.027 274.782C1021.44 350.061 1059.73 546.842 1053.95 635.822C1099.97 698.652 1072.41 699.911 1052.87 692.686C1080.03 743.851 1056.73 739.654 1041.69 731.159C1039.17 782.35 1015.5 782.268 1003.98 775.828Z" fill="url(#paint18_linear_31812_2454)"/>
<ellipse cx="705.319" cy="656.306" rx="120.729" ry="104.028" transform="rotate(9.55609 705.319 656.306)" fill="#FDCB99" fill-opacity="0.38"/>
<ellipse cx="904.56" cy="651.517" rx="66.7998" ry="41.2339" transform="rotate(-22.271 904.56 651.517)" fill="#F9746E"/>
<ellipse cx="492.169" cy="633.099" rx="66.7998" ry="41.2339" transform="rotate(26.123 492.169 633.099)" fill="#F9746E"/>
<path d="M708.383 642.322C737.075 643.186 769.854 619.724 772.002 596.705C774.15 573.687 750.158 560.989 713.256 557.546L712.494 557.475C675.555 554.028 649.707 561.234 647.481 585.087C645.255 608.939 673.166 637.254 701.563 641.685L708.383 642.322Z" fill="#C15A55"/>
<path d="M538.875 528.751C543.339 565.694 562.937 576.362 587.173 574.476C611.41 572.591 627.16 548.648 625.431 520.461C623.702 492.274 602.652 470.952 578.415 472.837C554.179 474.723 537.146 500.564 538.875 528.751Z" fill="url(#paint19_linear_31812_2454)"/>
<path d="M790.786 545.304C794.899 581.38 819.331 593.224 840.596 592.168C861.861 591.112 878.739 566.977 877.275 539.496C875.81 512.015 854.994 490.712 830.781 491.914C806.567 493.116 789.322 517.823 790.786 545.304Z" fill="url(#paint20_linear_31812_2454)"/>
<path d="M553.811 532.468C557.528 563.231 573.847 572.114 594.029 570.544C614.211 568.974 627.326 549.036 625.886 525.565C624.446 502.093 606.918 484.338 586.736 485.908C566.554 487.478 552.371 508.996 553.811 532.468Z" fill="url(#paint21_linear_31812_2454)"/>
<path d="M790.353 548.501C793.778 578.542 814.122 588.404 831.83 587.525C849.537 586.646 863.592 566.549 862.373 543.665C861.154 520.781 843.82 503.042 823.657 504.043C803.494 505.044 789.134 525.618 790.353 548.501Z" fill="url(#paint22_linear_31812_2454)"/>
<path d="M838.688 435.895C865.908 441.973 884.579 456.61 892.295 463.302C905.795 469.58 915.304 476.817 930.599 462.498C945.894 448.178 935.619 425.648 925.172 416.243C914.726 406.839 874.663 387.558 857.674 384.853C824.696 384.67 804.663 428.299 838.688 435.895Z" fill="#F16677"/>
<path d="M842.151 430.744C868.769 436.461 887.02 450.265 894.562 456.576C907.761 462.492 916.934 472.009 931.904 458.482C946.874 444.954 936.962 421.001 926.751 412.131C916.541 403.262 877.371 385.09 860.757 382.549C828.502 382.4 808.878 423.597 842.151 430.744Z" fill="#F9746E"/>
<path d="M594.335 418C566.478 419.359 545.59 430.608 536.848 435.89C522.477 439.78 511.876 445.294 499.239 428.582C486.602 411.87 500.56 391.415 512.454 383.925C524.347 376.434 567.106 364.248 584.308 364.472C616.836 369.901 629.157 416.301 594.335 418Z" fill="#F16677"/>
<path d="M593.74 409.624C566.537 410.731 546.204 421.229 537.699 426.165C523.686 429.75 513.028 437.569 500.577 421.692C488.126 405.816 501.968 383.897 513.538 376.893C525.108 369.89 566.798 358.645 583.603 358.966C615.412 364.306 627.744 408.24 593.74 409.624Z" fill="#F9746E"/>
<ellipse cx="705.319" cy="694.497" rx="21.6786" ry="24.7169" transform="rotate(7.14582 705.319 694.497)" fill="#C15A55"/>
<defs>
<linearGradient id="paint0_linear_31812_2454" x1="1001.97" y1="248.823" x2="953.328" y2="350.521" gradientUnits="userSpaceOnUse">
<stop stop-color="#F16677"/>
</linearGradient>
<linearGradient id="paint1_linear_31812_2454" x1="1002.65" y1="245.108" x2="954.008" y2="346.806" gradientUnits="userSpaceOnUse">
<stop stop-color="#F77870"/>
<stop offset="1" stop-color="#FD9276"/>
</linearGradient>
<linearGradient id="paint2_linear_31812_2454" x1="417.786" y1="209.672" x2="470.64" y2="317.492" gradientUnits="userSpaceOnUse">
<stop offset="0.00961538" stop-color="#F9746E"/>
<stop offset="1" stop-color="#FD9177"/>
</linearGradient>
<linearGradient id="paint3_linear_31812_2454" x1="726.468" y1="1206.14" x2="737.61" y2="913.288" gradientUnits="userSpaceOnUse">
<stop stop-color="#F9746E"/>
<stop offset="0.603435" stop-color="#FD8E78"/>
<stop offset="1" stop-color="#FD9068"/>
</linearGradient>
<linearGradient id="paint4_linear_31812_2454" x1="512.061" y1="1274.66" x2="351.749" y2="1251.34" gradientUnits="userSpaceOnUse">
<stop stop-color="#F9746E"/>
<stop offset="1" stop-color="#FD916B"/>
</linearGradient>
<linearGradient id="paint5_linear_31812_2454" x1="241.256" y1="1151.39" x2="271.638" y2="1210.01" gradientUnits="userSpaceOnUse">
<stop stop-color="#C15A55"/>
</linearGradient>
<linearGradient id="paint6_linear_31812_2454" x1="315.329" y1="1277.26" x2="266.06" y2="1304.32" gradientUnits="userSpaceOnUse">
<stop stop-color="#C15A55"/>
</linearGradient>
<linearGradient id="paint7_linear_31812_2454" x1="241.256" y1="1151.39" x2="271.638" y2="1210.01" gradientUnits="userSpaceOnUse">
<stop stop-color="#C15A55"/>
</linearGradient>
<linearGradient id="paint8_linear_31812_2454" x1="241.256" y1="1151.39" x2="271.638" y2="1210.01" gradientUnits="userSpaceOnUse">
<stop stop-color="#C15A55"/>
</linearGradient>
<linearGradient id="paint9_linear_31812_2454" x1="840.991" y1="1315.01" x2="1053.71" y2="1379.09" gradientUnits="userSpaceOnUse">
<stop stop-color="#F16677"/>
</linearGradient>
<linearGradient id="paint10_linear_31812_2454" x1="898.575" y1="1277.01" x2="1058.89" y2="1253.69" gradientUnits="userSpaceOnUse">
<stop stop-color="#F9746E"/>
<stop offset="1" stop-color="#FD916B"/>
</linearGradient>
<linearGradient id="paint11_linear_31812_2454" x1="1169.38" y1="1153.74" x2="1139" y2="1212.36" gradientUnits="userSpaceOnUse">
<stop stop-color="#C15A55"/>
</linearGradient>
<linearGradient id="paint12_linear_31812_2454" x1="1095.31" y1="1279.62" x2="1144.58" y2="1306.68" gradientUnits="userSpaceOnUse">
<stop stop-color="#C15A55"/>
</linearGradient>
<linearGradient id="paint13_linear_31812_2454" x1="1169.38" y1="1153.74" x2="1139" y2="1212.36" gradientUnits="userSpaceOnUse">
<stop stop-color="#C15A55"/>
</linearGradient>
<linearGradient id="paint14_linear_31812_2454" x1="1169.38" y1="1153.74" x2="1139" y2="1212.36" gradientUnits="userSpaceOnUse">
<stop stop-color="#C15A55"/>
</linearGradient>
<linearGradient id="paint15_linear_31812_2454" x1="290.348" y1="1118.77" x2="546.079" y2="840.114" gradientUnits="userSpaceOnUse">
<stop stop-color="#F9746E"/>
<stop offset="0.507388" stop-color="#FD956F"/>
<stop offset="1" stop-color="#FD9069"/>
</linearGradient>
<linearGradient id="paint16_linear_31812_2454" x1="1152.03" y1="1052.84" x2="830.726" y2="853.319" gradientUnits="userSpaceOnUse">
<stop stop-color="#F9746E"/>
<stop offset="0.507388" stop-color="#FD956F"/>
<stop offset="1" stop-color="#FD9069"/>
</linearGradient>
<linearGradient id="paint17_linear_31812_2454" x1="897.678" y1="837.021" x2="894.961" y2="833.642" gradientUnits="userSpaceOnUse">
<stop offset="1" stop-color="#F67970"/>
</linearGradient>
<linearGradient id="paint18_linear_31812_2454" x1="752.266" y1="760.3" x2="763.648" y2="871.806" gradientUnits="userSpaceOnUse">
<stop stop-color="#FD9276"/>
<stop offset="1" stop-color="#F67970"/>
</linearGradient>
<linearGradient id="paint19_linear_31812_2454" x1="578.974" y1="472.794" x2="586.886" y2="574.499" gradientUnits="userSpaceOnUse">
<stop stop-color="white"/>
</linearGradient>
<linearGradient id="paint20_linear_31812_2454" x1="831.339" y1="491.886" x2="836.269" y2="591.187" gradientUnits="userSpaceOnUse">
<stop stop-color="white"/>
</linearGradient>
<linearGradient id="paint21_linear_31812_2454" x1="590.382" y1="485.873" x2="596.679" y2="572.545" gradientUnits="userSpaceOnUse">
<stop stop-color="#9E423D"/>
</linearGradient>
<linearGradient id="paint22_linear_31812_2454" x1="810.715" y1="508.673" x2="814.82" y2="591.362" gradientUnits="userSpaceOnUse">
<stop stop-color="#9E423D"/>
</linearGradient>
</defs>
</svg>
